<svg width="29" height="29" viewBox="0 0 29 29" fill="none" xmlns="http://www.w3.org/2000/svg">
<path d="M14.4 0C11.552 0 8.76786 0.844545 6.39979 2.42684C4.03173 4.00913 2.18604 6.2581 1.09614 8.88936C0.00623929 11.5206 -0.278929 14.416 0.276698 17.2093C0.832325 20.0026 2.20379 22.5685 4.21767 24.5823C6.23154 26.5962 8.79738 27.9677 11.5907 28.5233C14.384 29.0789 17.2794 28.7938 19.9106 27.7039C22.5419 26.614 24.7909 24.7683 26.3732 22.4002C27.9555 20.0321 28.8 17.248 28.8 14.4C28.7962 10.5821 27.2778 6.92157 24.5781 4.22187C21.8784 1.52217 18.218 0.00381223 14.4 0ZM22.9522 11.1067V12.037C22.9522 12.1082 22.9379 12.1786 22.9103 12.2442C22.8826 12.3098 22.8421 12.3692 22.7911 12.4189C22.74 12.4686 22.6796 12.5075 22.6133 12.5334C22.547 12.5593 22.4761 12.5717 22.405 12.5698C20.8846 12.462 19.4301 11.9069 18.2246 10.9742V17.7826C18.2245 18.5361 18.0741 19.282 17.7824 19.9768C17.4906 20.6716 17.0633 21.3012 16.5254 21.829C15.9828 22.3699 15.3379 22.7974 14.6283 23.0867C13.9188 23.3759 13.1588 23.5211 12.3926 23.5138C10.8517 23.5111 9.37286 22.9065 8.27136 21.829C7.57065 21.1225 7.06593 20.2458 6.80688 19.2851C6.54783 18.3243 6.54336 17.3127 6.79392 16.3498C7.02288 15.4253 7.48512 14.5757 8.13744 13.883C8.62392 13.2884 9.23713 12.8101 9.93225 12.483C10.6274 12.1558 11.3868 11.9882 12.155 11.9923H13.3358V14.4446C13.3364 14.5159 13.3217 14.5864 13.2928 14.6515C13.2639 14.7166 13.2215 14.7748 13.1684 14.8222C13.1152 14.8696 13.0526 14.9052 12.9846 14.9265C12.9167 14.9478 12.8449 14.9544 12.7742 14.9458C12.0886 14.7398 11.3499 14.8081 10.7137 15.1363C10.0774 15.4644 9.59349 16.0268 9.36381 16.7048C9.13413 17.3828 9.17668 18.1235 9.48248 18.7708C9.78828 19.418 10.3334 19.9213 11.003 20.1744C11.3918 20.3976 11.8267 20.5286 12.2731 20.5589C12.6187 20.5733 12.9643 20.5301 13.2926 20.4264C13.841 20.2419 14.318 19.8906 14.6569 19.4218C14.9959 18.9529 15.18 18.3899 15.1834 17.8114V5.40576C15.1832 5.33775 15.1964 5.27037 15.2223 5.20748C15.2482 5.1446 15.2862 5.08744 15.3343 5.03928C15.3823 4.99113 15.4393 4.95292 15.5022 4.92685C15.565 4.90078 15.6323 4.88736 15.7003 4.88736H17.7379C17.8704 4.88717 17.9979 4.93787 18.0941 5.02897C18.1903 5.12008 18.2479 5.24465 18.2549 5.37696C18.3294 6.01226 18.5313 6.62601 18.8485 7.18148C19.1657 7.73695 19.5917 8.22273 20.101 8.60976C20.7894 9.12656 21.6071 9.44346 22.464 9.5256C22.5924 9.53657 22.7124 9.59368 22.8019 9.68634C22.8913 9.779 22.9442 9.90095 22.9507 10.0296L22.9522 11.1067Z" fill="white"/>
</svg>
